<svg xmlns="http://www.w3.org/2000/svg" width="1024" height="1024" viewBox="0 0 1024 1024" version="1.1"><path d="M 138.754 53.253 L 192 106.507 192 112.011 L 192 117.514 96 213.495 L 0 309.475 0 402.728 L 0 495.980 95.750 496.240 C 148.412 496.383, 233.464 496.275, 284.752 496 L 378.004 495.500 285.002 402.502 L 192 309.504 192 304 L 192 298.496 287.252 203.248 L 382.504 108 423.252 108 L 464 108 464 54 L 464 0 274.754 0 L 85.507 0 138.754 53.253 M 560 54 L 560 108 600.752 108 L 641.504 108 736.752 203.252 L 832 298.504 832 304.004 L 832 309.504 738.998 402.502 L 645.996 495.500 739.248 496 C 790.536 496.275, 875.587 496.383, 928.250 496.240 L 1024 495.980 1024 402.728 L 1024 309.475 928 213.495 L 832 117.514 832 112.011 L 832 106.507 885.246 53.253 L 938.493 0 749.246 0 L 560 0 560 54 M 95.750 527.755 L 0 528.010 0 621.267 L 0 714.525 96 810.505 L 192 906.486 192 911.989 L 192 917.493 138.754 970.747 L 85.507 1024 274.754 1024 L 464 1024 464 970 L 464 916 423.248 916 L 382.496 916 287.248 820.748 L 192 725.496 192 720 L 192 714.504 285.248 621.252 L 378.496 528 286.330 528 C 235.638 528, 193.564 527.888, 192.832 527.750 C 192.099 527.612, 148.412 527.615, 95.750 527.755 M 738.748 528 L 645.996 528.500 738.998 621.498 L 832 714.496 832 720 L 832 725.504 736.748 820.752 L 641.496 916 600.748 916 L 560 916 560 970 L 560 1024 749.246 1024 L 938.493 1024 885.246 970.747 L 832 917.493 832 911.989 L 832 906.486 928 810.505 L 1024 714.525 1024 621.262 L 1024 528 929.082 528 C 876.877 528, 833.564 527.888, 832.832 527.750 C 832.099 527.612, 789.762 527.725, 738.748 528" stroke="none" fill="#ede1cf" fill-rule="evenodd"/><path d="M 0 145.249 L 0 290.499 89.248 201.251 L 178.496 112.003 122.501 56.001 L 66.507 0 33.253 0 L 0 0 0 145.249 M 901.499 56.001 L 845.504 112.003 934.752 201.251 L 1024 290.499 1024 145.249 L 1024 0 990.747 0 L 957.493 0 901.499 56.001 M 295.500 214 L 205.504 304 295.500 394 L 385.496 484 512 484 L 638.504 484 728.500 394 L 818.496 304 728.500 214 L 638.504 124 512 124 L 385.496 124 295.500 214 M 295.500 630 L 205.504 720 295.500 810 L 385.496 900 512 900 L 638.504 900 728.500 810 L 818.496 720 728.500 630 L 638.504 540 512 540 L 385.496 540 295.500 630 M 0 878.751 L 0 1024 33.253 1024 L 66.507 1024 122.501 967.999 L 178.496 911.997 89.248 822.749 L 0 733.501 0 878.751 M 934.501 822.999 L 845.505 911.999 901.499 967.999 L 957.493 1024 990.747 1024 L 1024 1024 1024 879 C 1024 799.250, 1023.887 734, 1023.748 734 C 1023.609 734, 983.448 774.050, 934.501 822.999" stroke="none" fill="#ffc109" fill-rule="evenodd"/><path d="M 464 54 L 464 108 512 108 L 560 108 560 54 L 560 0 512 0 L 464 0 464 54 M 191.320 112 C 191.320 115.575, 191.502 117.037, 191.723 115.250 C 191.945 113.463, 191.945 110.537, 191.723 108.750 C 191.502 106.963, 191.320 108.425, 191.320 112 M 831.320 304 C 831.320 307.575, 831.502 309.038, 831.723 307.250 C 831.945 305.462, 831.945 302.538, 831.723 300.750 C 831.502 298.962, 831.320 300.425, 831.320 304 M 47.174 496.750 C 73.395 496.898, 116.595 496.898, 143.174 496.750 C 169.753 496.602, 148.300 496.480, 95.500 496.480 C 42.700 496.480, 20.953 496.601, 47.174 496.750 M 352.250 496.750 C 440.112 496.891, 583.887 496.891, 671.750 496.750 C 759.612 496.609, 687.725 496.494, 512 496.494 C 336.275 496.494, 264.387 496.609, 352.250 496.750 M 880.174 496.750 C 906.395 496.898, 949.595 496.898, 976.174 496.750 C 1002.753 496.602, 981.300 496.480, 928.500 496.480 C 875.700 496.480, 853.953 496.601, 880.174 496.750 M 47.174 527.750 C 73.395 527.898, 116.595 527.898, 143.174 527.750 C 169.753 527.602, 148.300 527.480, 95.500 527.480 C 42.700 527.480, 20.953 527.601, 47.174 527.750 M 352.250 527.750 C 440.112 527.891, 583.887 527.891, 671.750 527.750 C 759.612 527.609, 687.725 527.494, 512 527.494 C 336.275 527.494, 264.387 527.609, 352.250 527.750 M 880.174 527.750 C 906.395 527.898, 949.595 527.898, 976.174 527.750 C 1002.753 527.602, 981.300 527.480, 928.500 527.480 C 875.700 527.480, 853.953 527.601, 880.174 527.750 M 831.320 720 C 831.320 723.575, 831.502 725.038, 831.723 723.250 C 831.945 721.462, 831.945 718.538, 831.723 716.750 C 831.502 714.962, 831.320 716.425, 831.320 720 M 191.320 912 C 191.320 915.575, 191.502 917.038, 191.723 915.250 C 191.945 913.462, 191.945 910.538, 191.723 908.750 C 191.502 906.962, 191.320 908.425, 191.320 912 M 464 970 L 464 1024 512 1024 L 560 1024 560 970 L 560 916 512 916 L 464 916 464 970" stroke="none" fill="#7f7667" fill-rule="evenodd"/><path d="M 504 512 L 504 520 512 520 L 520 520 520 512 L 520 504 512 504 L 504 504 504 512" stroke="none" fill="#ffffff" fill-rule="evenodd"/><path d="M 122.501 56.001 L 178.495 112.001 89.247 201.253 L -0 290.504 -0 299.252 C -0 304.063, 0.338 308, 0.752 308 C 1.166 308, 44.141 265.362, 96.252 213.248 L 191 118.496 191 111.994 L 191 105.493 138.246 52.746 L 85.493 0 76 0 L 66.507 0 122.501 56.001 M 885.246 53.253 L 832 106.507 832 112.005 L 832 117.504 927.252 212.752 C 979.641 265.138, 1022.841 308, 1023.252 308 C 1023.663 308, 1024 304.063, 1024 299.252 L 1024 290.504 934.753 201.253 L 845.505 112.001 901.499 56.001 L 957.493 0 947.993 0 L 938.493 0 885.246 53.253 M 287.248 203.252 L 192 298.504 192 304.004 L 192 309.504 285.252 402.752 L 378.504 496 512.004 496 L 645.504 496 738.252 403.248 L 831 310.496 831 303.996 L 831 297.496 736.248 202.748 L 641.496 108 511.996 108 L 382.496 108 287.248 203.252 M 295.500 214 L 205.504 304 295.500 394 L 385.496 484 512 484 L 638.504 484 728.500 394 L 818.496 304 728.500 214 L 638.504 124 512 124 L 385.496 124 295.500 214 M 0 512.003 L 0 527.002 512.250 526.751 L 1024.500 526.500 1024.775 511.500 L 1025.049 496.500 512.525 496.752 L 0 497.004 0 512.003 M 0.402 512 C 0.402 520.525, 0.556 524.013, 0.743 519.750 C 0.931 515.487, 0.931 508.512, 0.743 504.250 C 0.556 499.988, 0.402 503.475, 0.402 512 M 504 512 L 504 520 512 520 L 520 520 520 512 L 520 504 512 504 L 504 504 504 512 M 285.248 621.252 L 192 714.504 192 720.004 L 192 725.504 287.252 820.752 L 382.504 916 512.004 916 L 641.504 916 736.252 821.248 L 831 726.496 831 720 L 831 713.504 738.252 620.752 L 645.504 528 512 528 L 378.496 528 285.248 621.252 M 295.500 630 L 205.504 720 295.500 810 L 385.496 900 512 900 L 638.504 900 728.500 810 L 818.496 720 728.500 630 L 638.504 540 512 540 L 385.496 540 295.500 630 M 0 724.748 L 0 733.496 89.247 822.747 L 178.495 911.999 122.501 967.999 L 66.507 1024 76.007 1024 L 85.507 1024 138.254 971.246 L 191 918.493 191 911.995 L 191 905.496 96.248 810.748 C 44.134 758.637, 1.159 716, 0.748 716 C 0.337 716, 0 719.937, 0 724.748 M 927.248 811.252 L 832 906.504 832 912.005 L 832 917.507 885.253 970.754 L 938.507 1024 948 1024 L 957.493 1024 901.499 967.999 L 845.505 911.999 934.753 822.747 L 1024 733.496 1024 724.748 C 1024 719.937, 1023.662 716, 1023.248 716 C 1022.834 716, 979.634 758.863, 927.248 811.252" stroke="none" fill="#241a04" fill-rule="evenodd"/></svg>