<svg xmlns="http://www.w3.org/2000/svg" width="662" height="614" viewBox="0 0 662 614" version="1.1"><path d="M 260 66 L 260 114 332 114 L 404 114 404 66 L 404 18 332 18 L 260 18 260 66 M 260 546 L 260 594 332 594 L 404 594 404 546 L 404 498 332 498 L 260 498 260 546" stroke="none" fill="#7f7667" fill-rule="evenodd"/><path d="M 109.248 209.252 C 56.862 261.641, 14 305.179, 14 306.004 C 14 306.829, 56.863 350.366, 109.252 402.752 L 204.504 498 332.004 498 L 459.504 498 554.752 402.748 C 607.138 350.359, 650 306.821, 650 305.996 C 650 305.171, 607.137 261.634, 554.748 209.248 L 459.496 114 331.996 114 L 204.496 114 109.248 209.252" stroke="none" fill="#ffc109" fill-rule="evenodd"/></svg>